<?xml version="1.0" encoding="utf-8"?>
<!-- Generator: Adobe Illustrator 21.0.0, SVG Export Plug-In . SVG Version: 6.00 Build 0)  -->
<svg version="1.1" id="Layer_1" xmlns="http://www.w3.org/2000/svg" xmlns:xlink="http://www.w3.org/1999/xlink" x="0px" y="0px"
	 viewBox="0 0 1000 1000" style="enable-background:new 0 0 1000 1000;" xml:space="preserve">
<style type="text/css">
	.st0{fill:#010101;stroke:#010101;stroke-width:37.3953;}
	.st1{fill:#356892;}
	.st2{fill:none;stroke:#FFFFFF;stroke-width:12.4651;stroke-linecap:round;stroke-linejoin:round;}
	.st3{fill:none;stroke:#FFFFFF;stroke-width:12.4651;stroke-linecap:round;stroke-linejoin:bevel;}
	.st4{fill:#FFFFFF;stroke:#FFFFFF;stroke-width:4.155;}
	.st5{fill:#FFFFFF;stroke:#FFFFFF;stroke-width:2.0775;}
	.st6{fill:none;stroke:#FFFFFF;stroke-width:3;stroke-linecap:round;stroke-linejoin:round;}
</style>
<g id="Layer_x0020_3">
	<path class="st0" d="M745.2,740.2c6.3-52.7,4.4-60.4,43.7-51.9l10,0.9c30.2,1.4,69.7-4.9,92.9-15.6c49.9-23.2,79.6-61.9,30.3-51.7
		C809.7,645,802,606.9,802,606.9c118.6-176,168.2-399.4,125.4-454.1C810.7,3.6,608.6,74.2,605.2,76l-1.1,0.2
		c-22.2-4.6-47-7.4-74.9-7.8c-50.8-0.8-89.4,13.3-118.7,35.5c0,0-360.5-148.5-343.7,186.8C70.4,362,169,830.4,286.7,689
		c43-51.7,84.6-95.5,84.6-95.5c20.6,13.7,45.4,20.7,71.3,18.2l2-1.7c-0.6,6.4-0.4,12.7,0.8,20.1c-30.3,33.9-21.4,39.8-82,52.3
		c-61.3,12.6-25.3,35.1-1.8,41c28.5,7.1,94.5,17.2,139.1-45.2l-1.8,7.1c11.9,9.5,11.1,68.4,12.8,110.5c1.7,42.1,4.5,81.3,13.1,104.5
		c8.6,23.1,18.7,82.8,98.4,65.7C689.7,951.7,740.6,931.2,745.2,740.2"/>
	<path class="st1" d="M922.1,621.8C809.7,645,802,606.9,802,606.9c118.6-176,168.2-399.4,125.4-454.1C810.7,3.6,608.6,74.2,605.2,76
		l-1.1,0.2c-22.2-4.6-47-7.4-75-7.8c-50.8-0.8-89.4,13.3-118.7,35.5c0,0-360.5-148.5-343.7,186.8C70.3,362,169,830.4,286.7,689
		c43-51.7,84.6-95.5,84.6-95.5c20.6,13.7,45.4,20.7,71.3,18.2l2-1.7c-0.6,6.4-0.3,12.7,0.8,20.1c-30.3,33.9-21.4,39.8-82,52.3
		c-61.3,12.6-25.3,35.1-1.8,41c28.5,7.1,94.5,17.2,139.1-45.2l-1.8,7.1c11.9,9.5,20.2,61.9,18.8,109.4c-1.4,47.5-2.3,80.1,7,105.5
		c9.4,25.5,18.7,82.8,98.4,65.7c66.6-14.3,101.1-51.2,105.9-112.9c3.4-43.8,11.1-37.4,11.6-76.6l6.2-18.6
		c7.1-59.4,1.1-78.6,42.2-69.7l10,0.9c30.2,1.4,69.7-4.9,92.9-15.6C941.7,650.3,971.3,611.6,922.1,621.8L922.1,621.8z"/>
	<path class="st2" d="M505.5,655.9c-3.1,110.6,0.8,222,11.6,249c10.8,27.1,34,79.7,113.7,62.6c66.6-14.3,90.8-41.9,101.3-102.9
		c7.7-44.9,22.7-169.4,24.6-194.9"/>
	<path class="st2" d="M410,101.4c0,0-360.8-147.4-344,187.9c3.6,71.3,102.2,539.8,219.9,398.3c43-51.7,81.9-92.3,81.9-92.3"/>
	<path class="st2" d="M604.8,74.5c-12.5,3.9,200.7-77.9,321.8,76.9c42.8,54.7-6.8,278.1-125.4,454.1"/>
	<path class="st3" d="M801.2,605.5c0,0,7.7,38,120.1,14.9c49.2-10.2,19.6,28.5-30.3,51.7c-41,19-132.8,23.9-134.3-2.4
		C752.8,601.9,805,622.5,801.2,605.5c-3.4-15.3-26.8-30.3-42.2-67.8c-13.5-32.7-184.9-283.3,47.5-246.1
		c8.5-1.8-60.6-221.1-278.2-224.7C310.9,63.4,318,334.5,318,334.5"/>
	<path class="st2" d="M444.6,628.7c-30.3,33.9-21.4,39.8-82,52.3c-61.3,12.6-25.3,35.1-1.8,41c28.5,7.1,94.5,17.2,139.1-45.2
		c13.6-19-0.1-49.3-18.7-57.1C472.1,616.1,460.1,611.4,444.6,628.7L444.6,628.7z"/>
	<path class="st2" d="M442.6,628.1c-3.1-19.9,6.5-43.6,16.8-71.3c15.5-41.6,51.1-83.2,22.6-215.2c-21.3-98.3-163.9-20.5-164-7.1
		c-0.1,13.3,6.5,67.6-2.4,130.8c-11.5,82.4,52.5,152.2,126.1,145"/>
	<path class="st4" d="M408.7,332.5c-0.6,4.6,8.3,16.7,20,18.3c11.7,1.6,21.7-7.9,22.3-12.4c0.6-4.6-8.3-9.6-20.1-11.2
		C419.3,325.6,409.3,327.9,408.7,332.5L408.7,332.5z"/>
	<path class="st5" d="M764.7,323.2c0.6,4.6-8.3,16.7-20,18.3c-11.7,1.6-21.7-7.9-22.3-12.4c-0.6-4.6,8.4-9.6,20.1-11.2
		C754.1,316.3,764.1,318.7,764.7,323.2L764.7,323.2z"/>
	<path class="st2" d="M806.6,291.7c1.9,35.7-7.7,60.1-8.9,98.1c-1.8,55.3,26.4,118.5-16.1,181.9"/>
	<path class="st6" d="M23.3,150.5"/>
</g>
</svg>
